<?xml version="1.0" standalone="no"?>
<!DOCTYPE svg PUBLIC "-//W3C//DTD SVG 20010904//EN"
 "http://www.w3.org/TR/2001/REC-SVG-20010904/DTD/svg10.dtd">
<svg version="1.0" xmlns="http://www.w3.org/2000/svg"
 width="1080.000000pt" height="1080.000000pt" viewBox="0 0 1080.000000 1080.000000"
 preserveAspectRatio="xMidYMid meet">
<metadata>
Created by potrace 1.14, written by Peter Selinger 2001-2017
</metadata>
<g transform="translate(0.000000,1080.000000) scale(0.100000,-0.100000)"
fill="#000000" stroke="none">
<path d="M865 7629 c-247 -187 -458 -346 -468 -354 -9 -8 -21 -15 -26 -15 -5
0 -11 -4 -13 -8 -1 -5 -82 -67 -178 -139 l-176 -131 0 -151 c0 -83 2 -151 3
-151 3 0 737 549 758 567 6 5 26 20 45 33 19 13 46 35 60 47 14 13 28 23 31
23 3 0 16 9 29 20 12 11 49 39 82 62 33 24 74 55 91 70 18 15 35 28 38 28 3 0
17 9 30 21 13 12 52 41 86 66 l63 44 37 -28 c21 -15 40 -31 41 -35 2 -5 8 -8
13 -8 5 0 60 -39 123 -87 62 -49 124 -96 137 -105 13 -9 33 -24 44 -33 107
-85 911 -683 914 -679 2 2 5 68 5 146 1 158 6 145 -83 211 -31 23 -60 45 -66
49 -5 5 -46 36 -90 69 -44 33 -87 65 -95 72 -8 7 -27 20 -41 29 -14 9 -32 23
-40 30 -15 14 -878 660 -894 670 -5 3 -212 -147 -460 -333z"/>
<path d="M7419 7966 c-2 -2 -31 -6 -64 -10 -64 -7 -73 -8 -150 -26 -27 -6 -59
-13 -70 -16 -113 -22 -341 -125 -470 -212 -141 -95 -287 -230 -388 -358 -48
-61 -48 -62 -85 -53 -95 23 -312 30 -439 16 -187 -22 -427 -113 -583 -220 -92
-64 -212 -172 -285 -257 -37 -44 -145 -201 -145 -212 0 -4 67 -8 150 -8 l150
0 32 37 c204 232 413 353 688 398 82 13 280 13 345 0 135 -27 244 -61 335
-103 153 -71 256 -109 267 -100 7 5 12 13 11 16 -1 8 8 33 51 126 17 38 31 72
31 75 0 7 -19 15 -190 88 -58 25 -109 49 -114 53 -14 14 192 212 286 273 161
107 293 164 483 208 118 27 358 34 465 14 87 -16 186 -41 215 -54 11 -5 54
-24 95 -42 229 -101 472 -310 633 -546 23 -34 47 -63 54 -63 7 0 52 11 100 25
48 13 120 29 158 34 69 9 261 8 320 -2 168 -29 323 -95 465 -195 65 -47 240
-216 240 -233 0 -5 70 -9 156 -9 138 0 155 2 150 16 -3 8 -33 55 -67 104 -66
97 -200 238 -288 303 -31 23 -58 44 -61 47 -11 12 -149 90 -210 118 -85 39
-206 77 -316 98 -113 22 -366 23 -474 1 l-74 -15 -41 47 c-61 71 -203 212
-270 268 -201 169 -461 297 -695 342 -30 6 -68 13 -85 17 -32 6 -310 15 -316
10z"/>
<path d="M1405 6097 c-1 -628 -4 -1163 -8 -1189 -31 -201 -144 -349 -297 -391
-52 -14 -169 -17 -219 -6 -121 27 -226 110 -281 222 -65 134 -62 93 -64 1059
-1 482 -5 880 -9 884 -4 4 -20 -4 -35 -17 -15 -14 -131 -103 -257 -198 l-231
-172 1 -692 c1 -381 5 -712 9 -737 12 -83 17 -105 43 -190 48 -162 129 -296
244 -404 123 -116 227 -173 408 -222 81 -22 144 -28 276 -28 153 0 208 8 325
47 224 74 397 220 503 427 24 47 47 96 51 110 5 14 10 30 12 35 2 6 16 57 30
115 l27 105 2 996 2 996 -262 196 c-144 109 -263 197 -266 197 -2 0 -4 -514
-4 -1143z"/>
<path d="M2154 5395 l0 -1265 238 0 238 0 1 38 c1 20 2 42 4 47 1 6 3 14 3 18
1 4 17 -3 35 -16 157 -116 365 -158 572 -116 430 87 672 525 561 1014 -48 213
-213 411 -420 505 -165 75 -426 76 -585 3 -48 -22 -144 -83 -153 -97 -4 -6 -9
-9 -9 -6 -1 3 -3 177 -4 388 -1 210 -4 383 -6 385 -45 34 -198 155 -208 165
-8 7 -26 21 -40 30 -14 9 -35 25 -46 34 -55 47 -171 137 -176 138 -3 0 -5
-569 -5 -1265z m1012 -163 c33 -17 76 -48 96 -69 157 -174 126 -494 -60 -611
-258 -163 -578 31 -567 343 7 165 101 302 246 356 82 30 204 22 285 -19z"/>
<path d="M4744 6302 c-6 -5 -10 -382 -10 -1089 l1 -1083 30 0 c41 -1 1515 -1
1540 0 20 0 21 6 21 230 1 127 -2 231 -5 231 -3 1 -239 3 -523 3 -285 1 -521
6 -525 10 -4 4 -8 384 -9 844 -1 460 -2 842 -3 849 -1 9 -63 12 -254 12 -139
0 -257 -3 -263 -7z"/>
<path d="M7316 6257 c-31 -69 -45 -105 -326 -787 -133 -322 -250 -604 -261
-627 -10 -24 -19 -46 -19 -49 0 -3 -6 -20 -14 -37 -17 -37 -13 -28 -207 -501
-27 -66 -47 -121 -44 -124 8 -8 560 -3 563 5 1 4 36 93 76 198 l73 190 453 0
453 0 74 -195 c40 -107 75 -196 78 -198 4 -5 555 -5 560 0 2 2 -2 17 -10 33
-8 17 -37 86 -65 155 -47 116 -68 166 -140 340 -15 36 -48 117 -74 180 -103
251 -117 286 -126 305 -5 11 -53 126 -106 255 -53 129 -118 287 -144 350 -26
63 -80 194 -120 290 -40 96 -81 196 -92 222 l-20 48 -270 -1 -270 0 -22 -52z
m427 -900 c70 -182 130 -341 133 -352 5 -20 0 -20 -260 -19 -146 0 -268 3
-271 6 -3 3 4 27 14 54 11 27 36 94 57 149 20 55 43 114 50 130 17 40 91 236
116 308 11 31 23 57 26 57 4 0 65 -150 135 -333z"/>
<path d="M8969 6298 c-1 -7 -2 -498 -2 -1091 l-2 -1077 40 0 c437 -5 1197 1
1252 10 300 50 482 213 527 477 28 156 3 309 -68 421 -59 95 -172 172 -281
194 -51 10 -67 28 -25 28 43 0 133 51 189 108 91 91 134 201 133 347 0 307
-188 524 -501 580 -107 19 -1261 22 -1262 3z m1093 -436 c7 -7 18 -12 26 -12
23 0 90 -58 107 -93 37 -72 29 -179 -18 -248 -28 -42 -99 -86 -152 -95 -22 -4
-149 -7 -283 -8 l-242 -1 -1 30 c-1 38 -1 416 0 430 1 16 547 13 563 -3z m68
-851 c86 -46 123 -109 123 -211 0 -117 -67 -205 -172 -229 -64 -14 -581 -12
-582 2 -1 15 -1 438 0 454 1 10 67 12 294 10 286 -2 293 -3 337 -26z"/>
<path d="M4197 6276 c-91 -33 -158 -111 -175 -204 -31 -170 86 -306 263 -305
159 1 268 106 268 259 0 34 -4 67 -9 75 -5 8 -9 19 -10 26 -1 7 -11 25 -23 41
-72 101 -204 147 -314 108z"/>
<path d="M4050 4860 l0 -730 75 -1 c41 0 131 0 200 0 69 0 140 0 158 0 l34 1
-1 728 -1 727 -232 3 -233 2 0 -730z"/>
</g>
</svg>
